<svg xmlns="http://www.w3.org/2000/svg" width="63" height="63" viewBox="0 0 63 63">
  <g id="EbUEnu.tif" transform="translate(-549)">
    <g id="Group_467" data-name="Group 467" transform="translate(549)">
      <path id="Path_173" data-name="Path 173" d="M612,42.574v2.953c-.074.44-.156.879-.22,1.321a18.8,18.8,0,0,1-14.065,15.534c-1.167.283-2.37.416-3.557.618h-2.215a2.782,2.782,0,0,0-.41-.1,18.886,18.886,0,0,1-12.177-5.857,1.21,1.21,0,0,0-.789-.317q-12.847-.026-25.694-.016c-2.24,0-3.022-.519-3.872-2.569V8.613a6.056,6.056,0,0,1,1.689-2.357Q553,4,555.256,1.689A6.074,6.074,0,0,1,557.613,0H588.5c1.911.65,2.534,2.021,2.516,3.979-.062,6.862-.024,13.726-.024,20.589v.607c1.649.07,3.217.006,4.745.223a18.752,18.752,0,0,1,15.782,14.533C611.717,40.8,611.841,41.693,612,42.574Zm-35.9-6.7a14.6,14.6,0,0,1-13.3-1.656,14.133,14.133,0,0,1-6.5-11.68A14.682,14.682,0,0,1,571.6,7.288a14.047,14.047,0,0,1,10.377,4.907c3.8,4.342,4.619,9.345,2.95,14.8l3.959-1.388v-.549q0-10.735,0-21.47c0-1.189-.3-1.491-1.486-1.491l-28.237,0h-.629a.893.893,0,0,0-.065.185c-.006,1.312,0,2.625-.016,3.937a3.168,3.168,0,0,1-3.232,3.238c-.738.014-1.476,0-2.215,0H551.1v.578q0,21.593,0,43.186c0,1.033.362,1.386,1.424,1.386q12.119,0,24.238,0c.172,0,.344-.025.608-.046a18.811,18.811,0,0,1-1.27-18.685Zm17.008-8.571a16.8,16.8,0,1,0,16.8,16.766A16.778,16.778,0,0,0,593.106,27.307Zm-9.479-4.142a2.908,2.908,0,0,0-.309-.05c-3.83,0-7.661-.01-11.491.012a1.18,1.18,0,0,0-.714.365q-3.884,3.851-7.742,7.727c-.139.139-.27.285-.418.442.142.125.228.212.325.286a12.3,12.3,0,0,0,10.3,2.428,9.32,9.32,0,0,0,5.864-3.285,9.892,9.892,0,0,1,1.186-1.157C582.6,28.117,583.217,25.715,583.627,23.165Zm-.093-2.182c.245-5.3-6.018-11.56-11.377-11.411V20.983ZM559.406,17.4c-1.891,4.189-.8,9.844,2.01,12.614l7.737-7.741Zm.916-1.893,9.65,4.821V9.586A12.2,12.2,0,0,0,560.323,15.511Zm-7.61-8.164a24.011,24.011,0,0,0,2.665-.033c.324-.037.834-.424.865-.7a25.216,25.216,0,0,0,.041-2.843Z" transform="translate(-549)" fill="#a43e50"/>
      <path id="Path_174" data-name="Path 174" d="M987.258,82.628c-.324.411-.67.767-1.272.642s-.764-.617-.914-1.115c-.129-.428-.259-.857-.425-1.4-.16.29-.265.477-.366.665q-2.583,4.783-5.165,9.566a4.675,4.675,0,0,1-.307.531,1.034,1.034,0,0,1-1.8-.994c.18-.412.409-.8.623-1.2q2.39-4.433,4.783-8.865c.105-.2.2-.395.359-.7-.607.173-1.11.319-1.614.459a1.06,1.06,0,1,1-.606-2q1.939-.587,3.883-1.155c.854-.249,1.308.008,1.58.871q.623,1.982,1.245,3.965Z" transform="translate(-924.258 -67.493)" fill="#a43e50"/>
      <path id="Path_175" data-name="Path 175" d="M912.819,54.9V66.108q0,.185,0,.369c0,.941-.36,1.446-1.033,1.456s-1.063-.507-1.063-1.428q0-3.6,0-7.195V54.744c-.459.45-.826.813-1.2,1.171-.572.552-1.163.6-1.623.141a1.084,1.084,0,0,1,.142-1.624q1.427-1.443,2.871-2.869a1.056,1.056,0,0,1,1.709-.011q1.494,1.463,2.957,2.957a1.052,1.052,0,1,1-1.495,1.468c-.387-.365-.766-.739-1.15-1.107C912.927,54.863,912.9,54.878,912.819,54.9Z" transform="translate(-863.473 -44.832)" fill="#a43e50"/>
      <path id="Path_176" data-name="Path 176" d="M610.912,317.724h2.1c0-1.047,0-2.064,0-3.081a.985.985,0,0,1,.78-1.04.927.927,0,0,1,1.116.43,1.77,1.77,0,0,1,.189.818c.022.941.008,1.882.008,2.861h2.1v-3.283c0-1.271,0-2.542,0-3.813,0-.769.414-1.26,1.039-1.266s1.051.486,1.053,1.249c.005,2.132,0,4.264,0,6.4v.761c.706,0,1.376,0,2.046,0,.758,0,1.518-.015,2.274.029a.992.992,0,0,1,.933.973,1.033,1.033,0,0,1-.848,1.054,3.4,3.4,0,0,1-.672.046q-6.366,0-12.731,0c-1.189,0-1.487-.3-1.488-1.495q0-4.828,0-9.656a3.866,3.866,0,0,1,.018-.553.973.973,0,0,1,.945-.892.941.941,0,0,1,1.041.687,2.625,2.625,0,0,1,.091.786q.009,4.121,0,8.241Z" transform="translate(-601.453 -269.452)" fill="#a43e50"/>
      <path id="Path_177" data-name="Path 177" d="M787.942,253.672a14.7,14.7,0,1,1,14.684,14.674A14.7,14.7,0,0,1,787.942,253.672Zm2.1.006a12.6,12.6,0,1,0,12.805-12.637A12.631,12.631,0,0,0,790.044,253.677Z" transform="translate(-758.541 -209.539)" fill="#a43e50"/>
      <path id="Path_178" data-name="Path 178" d="M868.893,290.742V284.6a5.429,5.429,0,0,1-3.024-1.869,5.234,5.234,0,0,1,2.464-8.262.991.991,0,0,0,.694-.63,1.436,1.436,0,0,1,.915-.662.825.825,0,0,1,.976.657c.1.409.335.527.684.641a5.192,5.192,0,0,1,3.6,4.788,1.09,1.09,0,0,1-1,1.232c-.6.025-1.032-.433-1.09-1.157a2.952,2.952,0,0,0-2.07-2.754v6.1a5.306,5.306,0,0,1,3.586,2.751,5.24,5.24,0,0,1-2.975,7.371.97.97,0,0,0-.761.648,1.361,1.361,0,0,1-.912.659.833.833,0,0,1-.976-.664c-.09-.434-.355-.518-.687-.628a5.23,5.23,0,0,1-3.58-4.684c-.027-.833.338-1.322,1-1.341.629-.018,1.033.433,1.094,1.22a3.076,3.076,0,0,0,1.7,2.6A2.231,2.231,0,0,0,868.893,290.742Zm0-14.156a3,3,0,0,0,0,5.708Zm2.16,8.393v5.727a3.023,3.023,0,0,0,0-5.727Z" transform="translate(-825.864 -239.544)" fill="#a43e50"/>
    </g>
  </g>
</svg>
